<?xml version="1.0" encoding="utf-8"?>
<!-- Generator: Adobe Illustrator 25.2.0, SVG Export Plug-In . SVG Version: 6.00 Build 0)  -->
<svg version="1.1" id="Layer_1" xmlns="http://www.w3.org/2000/svg" xmlns:xlink="http://www.w3.org/1999/xlink" x="0px" y="0px"
	 viewBox="0 0 227.11 227.09" style="enable-background:new 0 0 227.11 227.09;" xml:space="preserve">
<style type="text/css">
	.st0{fill:#2D2E4B;}
	.st1{fill:#0062FF;}
</style>
<g>
	<g>
		<g>
			<g>
				<path class="st0" d="M113.55,213.15c-54.92,0-99.61-44.68-99.61-99.61c0-54.92,44.68-99.61,99.61-99.61
					c54.92,0,99.61,44.68,99.61,99.61C213.16,168.47,168.48,213.15,113.55,213.15z M113.55,18.43c-52.45,0-95.12,42.67-95.12,95.12
					c0,52.45,42.67,95.12,95.12,95.12s95.12-42.67,95.12-95.12C208.67,61.1,166,18.43,113.55,18.43z"/>
			</g>
			<g>
				<path class="st0" d="M222.61,104.07h4.5C222.53,48.78,178.32,4.58,123.03,0v4.5C175.85,9.05,218.05,51.25,222.61,104.07z"/>
				<path class="st0" d="M4.5,104.07C9.05,51.25,51.26,9.05,104.07,4.5V0C48.78,4.58,4.58,48.78,0,104.07H4.5z"/>
				<path class="st0" d="M4.5,123.03H0c4.58,55.29,48.78,99.49,104.07,104.07v-4.5C51.26,218.04,9.05,175.84,4.5,123.03z"/>
				<path class="st0" d="M222.61,123.03c-4.55,52.82-46.76,95.01-99.58,99.57v4.5c55.29-4.58,99.5-48.78,104.08-104.07H222.61z"/>
			</g>
		</g>
		<g>
			<g>
				<path class="st0" d="M113.91,104.12c0.62,0,1.22,0.05,1.83,0.09l0.05-0.03L87.39,48.39L69.75,83.26l18.96,37.63
					C92.85,111.05,102.59,104.12,113.91,104.12z"/>
				<polygon class="st0" points="128.36,95.48 157.44,152.69 192.53,152.69 146.09,60.58 				"/>
				<polygon class="st0" points="34.58,152.69 61.55,99.47 78.92,134.03 69.63,152.69 				"/>
			</g>
			
				<ellipse transform="matrix(0.2298 -0.9732 0.9732 0.2298 -40.185 212.107)" class="st1" cx="113.91" cy="131.44" rx="21.11" ry="21.11"/>
		</g>
	</g>
</g>
</svg>
